<svg xmlns="http://www.w3.org/2000/svg" viewBox="0 0 512 512" width="512" height="512">
  <defs>
    <linearGradient id="bg" x1="0%" y1="0%" x2="100%" y2="100%">
      <stop offset="0%" style="stop-color:#064e3b"/>
      <stop offset="100%" style="stop-color:#059669"/>
    </linearGradient>
  </defs>
  <!-- Background -->
  <rect width="512" height="512" rx="96" fill="url(#bg)"/>
  <!-- Mosque dome -->
  <path d="M256 100 C180 100 130 170 130 220 L130 320 L382 320 L382 220 C382 170 332 100 256 100Z" fill="rgba(255,255,255,0.15)" stroke="rgba(255,255,255,0.3)" stroke-width="2"/>
  <!-- Crescent -->
  <circle cx="256" cy="170" r="45" fill="rgba(255,255,255,0.9)"/>
  <circle cx="272" cy="162" r="38" fill="url(#bg)"/>
  <!-- Star -->
  <polygon points="280,155 284,165 295,165 286,172 290,182 280,175 270,182 274,172 265,165 276,165" fill="rgba(255,255,255,0.9)"/>
  <!-- Prayer beads (tesbih) -->
  <circle cx="200" cy="370" r="12" fill="none" stroke="rgba(255,255,255,0.7)" stroke-width="3"/>
  <circle cx="228" cy="385" r="12" fill="none" stroke="rgba(255,255,255,0.7)" stroke-width="3"/>
  <circle cx="256" cy="392" r="12" fill="none" stroke="rgba(255,255,255,0.7)" stroke-width="3"/>
  <circle cx="284" cy="385" r="12" fill="none" stroke="rgba(255,255,255,0.7)" stroke-width="3"/>
  <circle cx="312" cy="370" r="12" fill="none" stroke="rgba(255,255,255,0.7)" stroke-width="3"/>
  <!-- Connecting line for beads -->
  <path d="M200 370 Q228 400 256 392 Q284 400 312 370" fill="none" stroke="rgba(255,255,255,0.4)" stroke-width="2"/>
</svg>
